<?xml version="1.0" standalone="no"?><!DOCTYPE svg PUBLIC "-//W3C//DTD SVG 1.1//EN" "http://www.w3.org/Graphics/SVG/1.1/DTD/svg11.dtd"><svg t="1502945945451" class="icon" style="" viewBox="0 0 1024 1024" version="1.1" xmlns="http://www.w3.org/2000/svg" p-id="7306" xmlns:xlink="http://www.w3.org/1999/xlink" width="64" height="64"><defs><style type="text/css"></style></defs><path d="M902.017808 793.001929c-7.765871 43.013653 1.352811 110.072955-26.100448 124.636648-9.611915 11.364839-257.537518 119.918183-269.184789 104.276948-47.88459-69.083401-124.906801-54.937217-217.418798-135.560442-36.582173-31.880081-73.788563-52.564169-113.886817-62.564941-54.147224-13.507642-145.411811 8.264221-155.298995-31.283494-8.92016-35.678594 32.500205-88.013543 124.239606-72.995501 101.270475 22.381753 155.638733 5.568832 155.300019-31.281447-0.220011-23.787776-102.167914-331.877643-124.240629-427.536306-12.913101-55.95643-13.831007-94.002954 31.060413-104.276948 34.243919-7.832386 53.573149 36.885072 72.472592 83.421968 31.890314 78.525448 40.11872 205.946512 72.472592 218.981387 3.882424-5.212722 1.713015-110.60405 103.531981-41.709961 14.46034-6.591115 24.589025-112.097054 113.886817-20.85498 33.648354 23.463388 20.697391-93.857645 124.239606 10.426467C909.565714 523.993149 910.302495 747.109716 902.017808 793.001929zM406.89622 203.564255c1.972934-8.456602 3.124154-17.231453 3.124154-26.292829 0-63.349817-50.989301-114.705462-113.88477-114.705462-62.899562 0-113.886817 51.355645-113.886817 114.705462 0 44.027749 24.65554 82.211397 60.792575 101.43932l11.508102 61.396325c-76.839039-16.817014-134.421502-85.622076-134.421502-168.049391 0-95.02319 76.482929-172.056658 170.829713-172.056658 94.345762 0 170.82869 77.032444 170.82869 172.056658 0 38.499849-12.709463 73.925686-33.920554 102.591563L406.89622 203.564255z" p-id="7307" fill="#d81e06"></path></svg>