<svg width="500" height="300" xmlns="http://www.w3.org/2000/svg">
 <g>
  <title>background</title>
  <rect x="-1" y="-1" width="502" height="302" id="canvas_background" fill="none"/>
 </g>
 <g>
  <title>Layer 1</title>
  <defs>
   <style type="text/css"/>
  </defs>
  <g id="svg_90">
   <path d="m15.55367,85.2267l0,10.55956l9.21998,5.27513l9.21864,-5.27513l0,-10.55956l-9.21864,-5.27653l-9.21998,5.27653z" fill="#999999" id="svg_88" stroke="null" stroke-width="0"/>
   <path d="m11.46173,77.35993c-3.96432,3.76931 -6.81337,6.8314 -8.7651,10.44543c-1.36356,2.52641 -1.98197,4.93864 -1.83817,7.16975c0.15077,2.33936 1.13958,4.50331 2.9388,6.43176c1.8468,1.97927 3.30126,3.26481 4.86368,4.29878a1.71716,1.71716 0 0 0 0.94928,0.28505c0.55571,-0.00008 1.10212,-0.26616 1.4338,-0.75776c0.25447,-0.37831 0.34565,-0.83287 0.25657,-1.27968c-0.08948,-0.44896 -0.34977,-0.83617 -0.73347,-1.09052c-1.30397,-0.86141 -2.5615,-1.97642 -4.19587,-3.72172l7.28299,0l0,-3.4151l-9.28,0c-0.48115,-1.88547 -0.09366,-3.81047 1.24094,-6.18134l8.32519,0.0056l0,-3.41536l-6.03335,0c1.47119,-1.84794 3.41881,-3.91817 5.93253,-6.30718c7.25121,-6.89329 10.84189,-11.67516 11.30009,-15.04876c0.06134,-0.4501 -0.05675,-0.89731 -0.33255,-1.25929c-0.27844,-0.36555 -0.68387,-0.60065 -1.14154,-0.66207c-0.93976,-0.12613 -1.80678,0.53055 -1.93405,1.46302c-0.09502,0.69569 -0.4663,1.58281 -1.10415,2.63884c-0.32081,0.00014 -1.13074,0.00202 -3.21763,0.00709c-3.91974,0.00944 -10.96491,0.02638 -12.21988,0.01754c-0.22958,-0.50896 -0.83085,-2.01293 -0.91945,-2.66205c-0.12714,-0.93341 -0.99396,-1.59057 -1.93264,-1.46451c-0.45847,0.06142 -0.86458,0.29672 -1.14329,0.66261c-0.27553,0.36164 -0.39349,0.80825 -0.33215,1.25714c0.36251,2.67582 2.66462,6.17337 7.24501,11.00702c0.64857,0.68379 1.7382,0.71747 2.42922,0.0749c0.33512,-0.31231 0.52752,-0.73576 0.54189,-1.19228c0.01431,-0.45646 -0.15115,-0.89111 -0.46643,-1.22428c-1.02824,-1.08316 -1.9487,-2.11483 -2.74398,-3.0749l10.26868,0c-1.6934,2.03946 -3.93558,4.38826 -6.67497,6.99227zm14.74083,25.14192l0,10.58389l9.24262,5.28868l9.23991,-5.28868l0,-10.58383l-9.23991,-5.29016l-9.24262,5.2901zm-8.12119,6.98971c-0.64858,-0.6838 -1.73822,-0.71761 -2.42924,-0.07491c-0.33512,0.31238 -0.5275,0.73576 -0.54189,1.19228c-0.0143,0.45646 0.15117,0.89104 0.46625,1.22414c1.02411,1.07993 1.94403,2.1116 2.74235,3.07497l-10.45352,0c1.69354,-2.03946 3.93565,-4.38825 6.67504,-6.9922c2.20735,-2.09823 3.58197,-3.50768 4.90288,-5.02746c0.29969,-0.3457 0.44612,-0.78664 0.41224,-1.24148c-0.03387,-0.45549 -0.24448,-0.87065 -0.59357,-1.1696c-0.71775,-0.61132 -1.80489,-0.53102 -2.42377,0.17951c-1.24668,1.43583 -2.55759,2.77926 -4.67567,4.79139c-7.25121,6.89322 -10.84188,11.67509 -11.30009,15.04869c-0.06134,0.4501 0.05675,0.89731 0.33255,1.25929c0.27851,0.36555 0.68387,0.60065 1.14161,0.66214c0.93922,0.12518 1.80664,-0.53069 1.93398,-1.46329c0.11681,-0.86007 0.29713,-1.43333 1.0777,-2.63196l15.46296,0c0.64202,1.06278 1.01425,1.94714 1.10705,2.63067c0.11667,0.85629 0.85594,1.48003 1.70197,1.47997c0.07613,0 0.15326,-0.00507 0.23066,-0.01546c0.45848,-0.06142 0.86452,-0.29672 1.14329,-0.66261c0.27554,-0.36164 0.39349,-0.80824 0.33214,-1.2572c-0.36251,-2.67583 -2.66461,-6.17337 -7.24492,-11.00688zm27.72866,-30.03157l-9.27723,5.30926l0,10.62506l9.27723,5.30785l9.27582,-5.30785l0,-10.62506l-9.27582,-5.30926z" fill="#666666" id="svg_89" stroke="null" stroke-width="0"/>
   <path d="m16.6063,149.57798l0,10.55957l9.21998,5.27512l9.21864,-5.27512l0,-10.55957l-9.21864,-5.27653l-9.21998,5.27653z" fill="#ff5656" id="svg_91" stroke="null" stroke-width="0"/>
   <path d="m11.98805,141.97437c-3.96432,3.76931 -6.81337,6.8314 -8.7651,10.44542c-1.36356,2.52642 -1.98197,4.93865 -1.83817,7.16976c0.15077,2.33935 1.13958,4.50331 2.9388,6.43176c1.8468,1.97927 3.30126,3.26481 4.86368,4.29877a1.71716,1.71716 0 0 0 0.94928,0.28505c0.55571,-0.00007 1.10212,-0.26615 1.4338,-0.75776c0.25447,-0.3783 0.34565,-0.83286 0.25657,-1.27967c-0.08948,-0.44896 -0.34977,-0.83618 -0.73347,-1.09052c-1.30397,-0.86141 -2.5615,-1.97643 -4.19587,-3.72172l7.28299,0l0,-3.4151l-9.28,0c-0.48115,-1.88547 -0.09366,-3.81047 1.24094,-6.18134l8.32519,0.0056l0,-3.41536l-6.03335,0c1.47119,-1.84794 3.41881,-3.91817 5.93253,-6.30718c7.25121,-6.89329 10.84189,-11.67517 11.30009,-15.04876c0.06134,-0.4501 -0.05675,-0.89731 -0.33255,-1.25929c-0.27844,-0.36555 -0.68387,-0.60065 -1.14154,-0.66207c-0.93976,-0.12613 -1.80678,0.53055 -1.93405,1.46302c-0.09502,0.69568 -0.4663,1.5828 -1.10415,2.63884c-0.32081,0.00014 -1.13074,0.00202 -3.21763,0.00709c-3.91973,0.00944 -10.96491,0.02638 -12.21988,0.01754c-0.22958,-0.50896 -0.83085,-2.01293 -0.91945,-2.66205c-0.12714,-0.93342 -0.99396,-1.59057 -1.93264,-1.46451c-0.45847,0.06141 -0.86458,0.29672 -1.14329,0.66261c-0.27553,0.36164 -0.39349,0.80825 -0.33215,1.25714c0.36251,2.67582 2.66462,6.17337 7.24501,11.00701c0.64857,0.6838 1.7382,0.71748 2.42922,0.07491c0.33512,-0.31231 0.52752,-0.73576 0.54189,-1.19228c0.01431,-0.45646 -0.15115,-0.89111 -0.46643,-1.22428c-1.02824,-1.08316 -1.9487,-2.11483 -2.74398,-3.07491l10.26868,0c-1.6934,2.03947 -3.93558,4.38827 -6.67497,6.99228zm14.74083,25.14192l0,10.58389l9.24262,5.28868l9.23991,-5.28868l0,-10.58383l-9.23991,-5.29016l-9.24262,5.2901zm-8.12119,6.9897c-0.64858,-0.68379 -1.73822,-0.7176 -2.42924,-0.0749c-0.33512,0.31238 -0.5275,0.73576 -0.54189,1.19228c-0.0143,0.45645 0.15117,0.89104 0.46625,1.22413c1.02411,1.07994 1.94403,2.1116 2.74235,3.07498l-10.45352,0c1.69354,-2.03946 3.93565,-4.38825 6.67504,-6.9922c2.20735,-2.09824 3.58197,-3.50768 4.90288,-5.02746c0.29969,-0.3457 0.44612,-0.78664 0.41224,-1.24148c-0.03387,-0.4555 -0.24448,-0.87065 -0.59357,-1.1696c-0.71775,-0.61133 -1.80489,-0.53102 -2.42377,0.17951c-1.24668,1.43583 -2.55759,2.77926 -4.67567,4.79139c-7.25121,6.89322 -10.84188,11.67509 -11.30009,15.04869c-0.06134,0.4501 0.05675,0.89731 0.33255,1.25929c0.27851,0.36555 0.68387,0.60065 1.14161,0.66214c0.93922,0.12518 1.80664,-0.53069 1.93398,-1.46329c0.11681,-0.86008 0.29713,-1.43333 1.0777,-2.63196l15.46296,0c0.64202,1.06278 1.01425,1.94714 1.10705,2.63067c0.11667,0.85629 0.85594,1.48003 1.70197,1.47997c0.07613,0 0.15326,-0.00507 0.23066,-0.01546c0.45848,-0.06142 0.86452,-0.29672 1.14329,-0.66261c0.27554,-0.36164 0.39349,-0.80824 0.33214,-1.2572c-0.36251,-2.67583 -2.66461,-6.17337 -7.24492,-11.00689zm27.72866,-30.03156l-9.27723,5.30926l0,10.62506l9.27723,5.30785l9.27582,-5.30785l0,-10.62506l-9.27582,-5.30926z" fill="#ff7f00" id="svg_92" stroke="null" stroke-width="0"/>
   <text fill="#000000" stroke-width="0" stroke-opacity="null" x="26.0778" y="72.252957" id="svg_93" font-size="24" font-family="Helvetica, Arial, sans-serif" text-anchor="start" xml:space="preserve" stroke="null" font-weight="bold" font-style="normal" transform="matrix(0.7170208926795609,0,0,0.7170208926795609,41.22081565020364,43.176456044836904) ">BioFrontier</text>
   <text fill="#bf0000" stroke-width="0" stroke-opacity="null" x="133.208866" y="53.25821" id="svg_96" font-size="24" font-family="Helvetica, Arial, sans-serif" text-anchor="start" xml:space="preserve" stroke="null" font-weight="bold" font-style="normal" transform="matrix(0.5696990609547256,0,0,0.5696990609547256,-15.0627585957746,43.311162454186785) ">ShanghaiTech</text>
   <text fill="#e5e5e5" stroke-width="0" stroke-opacity="null" x="26.0778" y="161.673383" id="svg_98" font-size="24" font-family="Helvetica, Arial, sans-serif" text-anchor="start" xml:space="preserve" transform="matrix(0.7170208926795609,0,0,0.7170208926795609,41.22081565020364,43.176456044836904) " stroke="null" font-weight="bold" font-style="normal">BioFrontier</text>
   <path d="m15.55367,23.3662l0,10.55957l9.21998,5.27512l9.21864,-5.27512l0,-10.55957l-9.21864,-5.27653l-9.21998,5.27653z" fill="#ff5656" id="svg_113" stroke="null" stroke-width="0"/>
   <path d="m11.46173,15.49943c-3.96432,3.76931 -6.81337,6.8314 -8.7651,10.44543c-1.36356,2.52641 -1.98197,4.93864 -1.83817,7.16975c0.15077,2.33936 1.13958,4.50331 2.9388,6.43176c1.8468,1.97927 3.30126,3.26481 4.86368,4.29878a1.71716,1.71716 0 0 0 0.94928,0.28505c0.55571,-0.00008 1.10212,-0.26616 1.4338,-0.75776c0.25447,-0.37831 0.34565,-0.83287 0.25657,-1.27968c-0.08948,-0.44896 -0.34977,-0.83617 -0.73347,-1.09052c-1.30397,-0.86141 -2.5615,-1.97642 -4.19587,-3.72172l7.28299,0l0,-3.4151l-9.28,0c-0.48115,-1.88547 -0.09366,-3.81047 1.24094,-6.18134l8.32519,0.0056l0,-3.41536l-6.03335,0c1.47119,-1.84794 3.41881,-3.91817 5.93253,-6.30718c7.25121,-6.89329 10.84189,-11.67516 11.30009,-15.04876c0.06134,-0.4501 -0.05675,-0.89731 -0.33255,-1.25929c-0.27844,-0.36555 -0.68387,-0.60065 -1.14154,-0.66207c-0.93976,-0.12613 -1.80678,0.53055 -1.93405,1.46302c-0.09502,0.69569 -0.4663,1.58281 -1.10415,2.63884c-0.32081,0.00014 -1.13074,0.00202 -3.21763,0.00709c-3.91974,0.00944 -10.96491,0.02638 -12.21988,0.01754c-0.22958,-0.50896 -0.83085,-2.01293 -0.91945,-2.66205c-0.12714,-0.93341 -0.99396,-1.59057 -1.93264,-1.46451c-0.45847,0.06142 -0.86458,0.29672 -1.14329,0.66261c-0.27553,0.36164 -0.39349,0.80825 -0.33215,1.25714c0.36251,2.67582 2.66462,6.17337 7.24501,11.00702c0.64857,0.68379 1.7382,0.71747 2.42922,0.0749c0.33512,-0.31231 0.52752,-0.73576 0.54189,-1.19228c0.01431,-0.45646 -0.15115,-0.89111 -0.46643,-1.22428c-1.02824,-1.08316 -1.9487,-2.11483 -2.74398,-3.0749l10.26868,0c-1.6934,2.03946 -3.93558,4.38826 -6.67497,6.99227zm14.74083,25.14192l0,10.58389l9.24262,5.28868l9.23991,-5.28868l0,-10.58383l-9.23991,-5.29016l-9.24262,5.2901zm-8.12119,6.98971c-0.64858,-0.6838 -1.73822,-0.71761 -2.42924,-0.07491c-0.33512,0.31238 -0.5275,0.73576 -0.54189,1.19228c-0.0143,0.45646 0.15117,0.89104 0.46625,1.22414c1.02411,1.07993 1.94403,2.1116 2.74235,3.07497l-10.45352,0c1.69354,-2.03946 3.93565,-4.38825 6.67504,-6.9922c2.20735,-2.09823 3.58197,-3.50768 4.90288,-5.02746c0.29969,-0.3457 0.44612,-0.78664 0.41224,-1.24148c-0.03387,-0.45549 -0.24448,-0.87065 -0.59357,-1.1696c-0.71775,-0.61132 -1.80489,-0.53102 -2.42377,0.17951c-1.24668,1.43583 -2.55759,2.77926 -4.67567,4.79139c-7.25121,6.89322 -10.84188,11.67509 -11.30009,15.04869c-0.06134,0.4501 0.05675,0.89731 0.33255,1.25929c0.27851,0.36555 0.68387,0.60065 1.14161,0.66214c0.93922,0.12518 1.80664,-0.53069 1.93398,-1.46329c0.11681,-0.86007 0.29713,-1.43333 1.0777,-2.63196l15.46296,0c0.64202,1.06278 1.01425,1.94714 1.10705,2.63067c0.11667,0.85629 0.85594,1.48003 1.70197,1.47997c0.07613,0 0.15326,-0.00507 0.23066,-0.01546c0.45848,-0.06142 0.86452,-0.29672 1.14329,-0.66261c0.27554,-0.36164 0.39349,-0.80824 0.33214,-1.2572c-0.36251,-2.67583 -2.66461,-6.17337 -7.24492,-11.00688zm27.72866,-30.03157l-9.27723,5.30926l0,10.62506l9.27723,5.30785l9.27582,-5.30785l0,-10.62506l-9.27582,-5.30926z" fill="#ff7f00" id="svg_114" stroke="null" stroke-width="0"/>
   <text fill="#000000" stroke-width="0" stroke-opacity="null" x="26.0778" y="-14.021375" id="svg_115" font-size="24" font-family="Helvetica, Arial, sans-serif" text-anchor="start" xml:space="preserve" stroke="null" font-weight="bold" font-style="normal" transform="matrix(0.7170208926795609,0,0,0.7170208926795609,41.22081565020364,43.176456044836904) ">BioFrontier</text>
   <text fill="#e5e5e5" stroke-width="0" stroke-opacity="null" x="133.208866" y="168.450629" id="svg_118" font-size="24" font-family="Helvetica, Arial, sans-serif" text-anchor="start" xml:space="preserve" stroke="null" font-weight="bold" font-style="normal" transform="matrix(0.5696990609547256,0,0,0.5696990609547256,-15.0627585957746,43.311162454186785) ">ShanghaiTech</text>
   <text fill="#bf0000" stroke-width="0" stroke-opacity="null" x="133.208866" y="-54.254713" id="svg_119" font-size="24" font-family="Helvetica, Arial, sans-serif" text-anchor="start" xml:space="preserve" stroke="null" font-weight="bold" font-style="normal" transform="matrix(0.5696990609547256,0,0,0.5696990609547256,-15.0627585957746,43.311162454186785) ">ShanghaiTech</text>
  </g>
  <text fill="#e5e5e5" stroke-width="0" stroke-opacity="null" x="44.74625" y="179.360713" id="svg_97" font-size="24" font-family="Helvetica, Arial, sans-serif" text-anchor="start" xml:space="preserve" font-weight="bold" font-style="normal" transform="matrix(0.8063790465788878,0,0,0.8063790465788878,24.147547131719776,35.87488356736068) " stroke="null">FoGG 2017</text>
  <text fill="#000000" stroke-width="0" stroke-opacity="null" fill-opacity="null" x="44.169453" y="100.339605" id="svg_94" font-size="24" font-family="Helvetica, Arial, sans-serif" text-anchor="start" xml:space="preserve" font-weight="bold" font-style="normal" transform="matrix(0.8063790465788878,0,0,0.8063790465788878,24.147547131719776,35.87488356736068) " stroke="null">FoGG 2017</text>
  <text fill="#000000" stroke-width="0" stroke-opacity="null" fill-opacity="null" x="44.169453" y="23.135405" id="svg_117" font-size="24" font-family="Helvetica, Arial, sans-serif" text-anchor="start" xml:space="preserve" font-weight="bold" font-style="normal" transform="matrix(0.8063790465788878,0,0,0.8063790465788878,24.147547131719776,35.87488356736068) " stroke="null">FoGG 2017</text>
 </g>
</svg>